<?xml version="1.0" encoding="utf-8"?>
<!-- Generator: Adobe Illustrator 16.0.3, SVG Export Plug-In . SVG Version: 6.00 Build 0)  -->
<!DOCTYPE svg PUBLIC "-//W3C//DTD SVG 1.1//EN" "http://www.w3.org/Graphics/SVG/1.1/DTD/svg11.dtd">
<svg version="1.1" id="Layer_1" xmlns="http://www.w3.org/2000/svg" xmlns:xlink="http://www.w3.org/1999/xlink" x="0px" y="0px"
	 width="373.728px" height="119.331px" viewBox="0 0 373.728 119.331" enable-background="new 0 0 373.728 119.331"
	 xml:space="preserve">
<g>
	<path fill="#FFFFFF" d="M111.965,51.195V11.302h5.623l12.785,20.183c2.959,4.676,5.268,8.878,7.162,12.962l0.119-0.059
		c-0.474-5.327-0.592-10.181-0.592-16.396V11.302h4.854v39.893h-5.208L124.04,30.953c-2.782-4.439-5.445-8.997-7.458-13.317
		l-0.178,0.059c0.296,5.031,0.415,9.825,0.415,16.455v17.046H111.965z"/>
	<path fill="#FFFFFF" d="M176.663,36.635c0,10.595-7.339,15.211-14.265,15.211c-7.754,0-13.732-5.682-13.732-14.738
		c0-9.589,6.274-15.211,14.206-15.211C171.1,21.897,176.663,27.875,176.663,36.635z M153.935,36.931c0,6.274,3.61,11.009,8.7,11.009
		c4.973,0,8.701-4.676,8.701-11.127c0-4.854-2.427-11.009-8.582-11.009C156.598,25.803,153.935,31.485,153.935,36.931z"/>
	<path fill="#FFFFFF" d="M183.236,31.485c0-3.374-0.059-6.274-0.236-8.938h4.558l0.178,5.623h0.236
		c1.302-3.847,4.439-6.274,7.932-6.274c0.592,0,1.006,0.059,1.479,0.177v4.913c-0.533-0.119-1.065-0.178-1.775-0.178
		c-3.67,0-6.274,2.782-6.984,6.688c-0.119,0.71-0.236,1.539-0.236,2.427v15.271h-5.15V31.485z"/>
	<path fill="#FFFFFF" d="M210.584,14.321v8.227h7.458v3.966h-7.458v15.448c0,3.551,1.006,5.563,3.906,5.563
		c1.361,0,2.367-0.177,3.02-0.355l0.236,3.907c-1.006,0.414-2.604,0.71-4.617,0.71c-2.426,0-4.38-0.77-5.623-2.19
		c-1.479-1.539-2.012-4.084-2.012-7.458V26.514h-4.439v-3.966h4.439v-6.866L210.584,14.321z"/>
	<path fill="#FFFFFF" d="M223.904,9.171h5.208v17.875h0.118c0.829-1.48,2.131-2.782,3.729-3.67c1.539-0.888,3.375-1.479,5.328-1.479
		c3.847,0,10.002,2.367,10.002,12.252v17.046h-5.208V34.741c0-4.617-1.717-8.523-6.63-8.523c-3.373,0-6.037,2.367-6.983,5.208
		c-0.296,0.71-0.355,1.479-0.355,2.486v17.283h-5.208V9.171z"/>
	<path fill="#FFFFFF" d="M256.758,9.171h5.208v42.024h-5.208V9.171z"/>
	<path fill="#FFFFFF" d="M286.59,51.195l-0.414-3.61h-0.178c-1.599,2.249-4.676,4.261-8.76,4.261c-5.801,0-8.76-4.084-8.76-8.227
		c0-6.925,6.154-10.713,17.223-10.654v-0.592c0-2.367-0.65-6.629-6.51-6.629c-2.664,0-5.445,0.829-7.458,2.131l-1.185-3.433
		c2.368-1.539,5.801-2.545,9.412-2.545c8.76,0,10.891,5.978,10.891,11.719V44.33c0,2.486,0.118,4.913,0.473,6.866H286.59z
		 M285.82,36.576c-5.682-0.118-12.134,0.888-12.134,6.452c0,3.374,2.249,4.972,4.913,4.972c3.729,0,6.096-2.368,6.925-4.794
		c0.177-0.533,0.296-1.125,0.296-1.657V36.576z"/>
	<path fill="#FFFFFF" d="M299.26,30.302c0-2.959-0.059-5.386-0.236-7.754h4.616l0.296,4.735h0.119
		c1.42-2.723,4.734-5.386,9.47-5.386c3.966,0,10.121,2.367,10.121,12.193v17.105h-5.208V34.682c0-4.617-1.717-8.464-6.63-8.464
		c-3.433,0-6.097,2.427-6.983,5.327c-0.237,0.651-0.355,1.539-0.355,2.427v17.224h-5.209V30.302z"/>
	<path fill="#FFFFFF" d="M356.854,9.171v34.625c0,2.545,0.061,5.445,0.237,7.398h-4.676l-0.237-4.972h-0.117
		c-1.599,3.196-5.091,5.623-9.767,5.623c-6.925,0-12.253-5.859-12.253-14.56c-0.059-9.53,5.86-15.389,12.845-15.389
		c4.38,0,7.339,2.071,8.642,4.38h0.118V9.171H356.854z M351.646,34.208c0-0.651-0.06-1.539-0.237-2.19
		c-0.77-3.314-3.609-6.037-7.517-6.037c-5.386,0-8.582,4.735-8.582,11.068c0,5.8,2.841,10.595,8.464,10.595
		c3.492,0,6.688-2.309,7.635-6.215c0.178-0.71,0.237-1.42,0.237-2.249V34.208z"/>
</g>
<g>
	<path fill="#FFFFFF" d="M132.622,83.815h-15.507v14.383h17.283v4.321h-22.433V62.625h21.544v4.321h-16.395v12.607h15.507V83.815z"
		/>
	<path fill="#FFFFFF" d="M142.924,73.871l5.623,16.1c0.947,2.604,1.717,4.972,2.309,7.339h0.178c0.65-2.368,1.479-4.735,2.426-7.339
		l5.564-16.1h5.445l-11.246,28.647h-4.972L137.36,73.871H142.924z"/>
	<path fill="#FFFFFF" d="M171.93,89.142c0.117,7.043,4.616,9.943,9.824,9.943c3.729,0,5.979-0.651,7.932-1.479l0.889,3.729
		c-1.836,0.829-4.973,1.775-9.53,1.775c-8.819,0-14.087-5.8-14.087-14.442s5.09-15.448,13.436-15.448
		c9.353,0,11.838,8.227,11.838,13.495c0,1.065-0.118,1.894-0.178,2.427H171.93z M187.199,85.413c0.06-3.314-1.361-8.464-7.221-8.464
		c-5.268,0-7.576,4.853-7.99,8.464H187.199z"/>
	<path fill="#FFFFFF" d="M198.686,81.625c0-2.959-0.059-5.386-0.236-7.754h4.617l0.295,4.735h0.119
		c1.42-2.723,4.734-5.386,9.471-5.386c3.965,0,10.121,2.367,10.121,12.193v17.105h-5.209V86.005c0-4.617-1.717-8.464-6.629-8.464
		c-3.434,0-6.097,2.427-6.984,5.327c-0.236,0.651-0.355,1.539-0.355,2.427v17.224h-5.209V81.625z"/>
	<path fill="#FFFFFF" d="M237.813,65.644v8.227h7.458v3.966h-7.458v15.448c0,3.551,1.007,5.563,3.907,5.563
		c1.361,0,2.367-0.177,3.018-0.355l0.237,3.907c-1.007,0.414-2.604,0.71-4.616,0.71c-2.428,0-4.381-0.77-5.623-2.19
		c-1.48-1.539-2.014-4.084-2.014-7.458V77.837h-4.438v-3.966h4.438v-6.866L237.813,65.644z"/>
	<path fill="#FFFFFF" d="M250.422,97.191c1.539,1.006,4.262,2.072,6.867,2.072c3.787,0,5.563-1.894,5.563-4.262
		c0-2.486-1.479-3.847-5.326-5.268c-5.149-1.835-7.576-4.676-7.576-8.109c0-4.617,3.729-8.405,9.885-8.405
		c2.9,0,5.445,0.829,7.043,1.775l-1.303,3.788c-1.124-0.71-3.195-1.657-5.859-1.657c-3.078,0-4.794,1.776-4.794,3.907
		c0,2.367,1.716,3.433,5.445,4.854c4.972,1.894,7.517,4.38,7.517,8.641c0,5.031-3.906,8.583-10.713,8.583
		c-3.137,0-6.037-0.77-8.049-1.953L250.422,97.191z"/>
	<path fill="#FFFFFF" d="M273.332,99.441c0-2.19,1.479-3.729,3.551-3.729c2.072,0,3.492,1.539,3.492,3.729
		c0,2.13-1.361,3.729-3.551,3.729C274.752,103.169,273.332,101.571,273.332,99.441z"/>
</g>
<g>
	<path fill="#FFFFFF" d="M318.972,87.958c0,10.595-7.339,15.211-14.265,15.211c-7.754,0-13.732-5.682-13.732-14.738
		c0-9.589,6.274-15.211,14.206-15.211C313.408,73.22,318.972,79.198,318.972,87.958z M296.243,88.254
		c0,6.274,3.61,11.009,8.7,11.009c4.973,0,8.701-4.676,8.701-11.127c0-4.854-2.427-11.009-8.582-11.009
		C298.906,77.126,296.243,82.809,296.243,88.254z"/>
	<path fill="#FFFFFF" d="M325.545,82.809c0-3.374-0.059-6.274-0.236-8.938h4.558l0.178,5.623h0.236
		c1.302-3.847,4.439-6.274,7.932-6.274c0.592,0,1.006,0.059,1.479,0.177v4.913c-0.533-0.119-1.065-0.178-1.775-0.178
		c-3.67,0-6.274,2.782-6.984,6.688c-0.119,0.71-0.236,1.539-0.236,2.427v15.271h-5.15V82.809z"/>
	<path fill="#FFFFFF" d="M369.584,73.871c-0.118,2.072-0.236,4.38-0.236,7.872v16.632c0,6.57-1.303,10.595-4.084,13.081
		c-2.782,2.604-6.807,3.433-10.418,3.433c-3.433,0-7.221-0.829-9.529-2.368l1.303-3.966c1.894,1.184,4.854,2.25,8.404,2.25
		c5.327,0,9.233-2.782,9.233-10.003v-3.196h-0.118c-1.598,2.664-4.676,4.794-9.115,4.794c-7.103,0-12.193-6.038-12.193-13.969
		c0-9.707,6.334-15.211,12.904-15.211c4.971,0,7.693,2.604,8.938,4.972h0.117l0.237-4.321H369.584z M364.197,85.176
		c0-0.888-0.059-1.657-0.295-2.368c-0.947-3.019-3.492-5.504-7.281-5.504c-4.971,0-8.522,4.202-8.522,10.832
		c0,5.623,2.841,10.299,8.464,10.299c3.196,0,6.097-2.013,7.221-5.327c0.297-0.888,0.414-1.894,0.414-2.782V85.176z"/>
</g>
<g>
	<path fill="#006226" d="M109.953,53.208V13.315h5.623l12.785,20.183c2.959,4.676,5.268,8.878,7.162,12.962l0.119-0.059
		c-0.474-5.327-0.592-10.181-0.592-16.396V13.315h4.854v39.893h-5.208l-12.667-20.243c-2.782-4.439-5.445-8.997-7.458-13.317
		l-0.178,0.059c0.296,5.031,0.415,9.825,0.415,16.455v17.046H109.953z"/>
	<path fill="#006226" d="M174.65,38.647c0,10.595-7.34,15.211-14.265,15.211c-7.754,0-13.732-5.682-13.732-14.738
		c0-9.589,6.274-15.211,14.206-15.211C169.086,23.91,174.65,29.888,174.65,38.647z M151.922,38.943
		c0,6.274,3.61,11.009,8.701,11.009c4.971,0,8.7-4.676,8.7-11.127c0-4.854-2.427-11.009-8.583-11.009
		C154.586,27.816,151.922,33.498,151.922,38.943z"/>
	<path fill="#006226" d="M181.225,33.498c0-3.374-0.06-6.274-0.237-8.938h4.558l0.178,5.623h0.236
		c1.303-3.847,4.439-6.274,7.932-6.274c0.592,0,1.006,0.059,1.479,0.177V29c-0.532-0.119-1.065-0.178-1.775-0.178
		c-3.67,0-6.274,2.782-6.984,6.688c-0.118,0.71-0.237,1.539-0.237,2.427v15.271h-5.148V33.498z"/>
	<path fill="#006226" d="M208.571,16.333v8.227h7.458v3.966h-7.458v15.448c0,3.551,1.007,5.563,3.907,5.563
		c1.361,0,2.367-0.177,3.018-0.355l0.237,3.907c-1.007,0.414-2.604,0.71-4.616,0.71c-2.428,0-4.381-0.77-5.623-2.19
		c-1.48-1.539-2.014-4.084-2.014-7.458V28.526h-4.438v-3.966h4.438v-6.866L208.571,16.333z"/>
	<path fill="#006226" d="M221.891,11.184h5.209v17.875h0.119c0.828-1.48,2.131-2.782,3.729-3.67
		c1.539-0.888,3.373-1.479,5.326-1.479c3.848,0,10.004,2.367,10.004,12.252v17.046h-5.209V36.753c0-4.617-1.717-8.523-6.629-8.523
		c-3.374,0-6.037,2.367-6.984,5.208c-0.297,0.71-0.355,1.479-0.355,2.486v17.283h-5.209V11.184z"/>
	<path fill="#006226" d="M254.744,11.184h5.209v42.024h-5.209V11.184z"/>
	<path fill="#006226" d="M284.577,53.208l-0.415-3.61h-0.178c-1.598,2.249-4.676,4.261-8.76,4.261c-5.8,0-8.76-4.084-8.76-8.227
		c0-6.925,6.156-10.713,17.225-10.654v-0.592c0-2.367-0.651-6.629-6.512-6.629c-2.663,0-5.445,0.829-7.457,2.131l-1.184-3.433
		c2.367-1.539,5.801-2.545,9.41-2.545c8.76,0,10.891,5.978,10.891,11.719v10.713c0,2.486,0.119,4.913,0.475,6.866H284.577z
		 M283.808,38.588c-5.683-0.118-12.134,0.888-12.134,6.452c0,3.374,2.249,4.972,4.912,4.972c3.729,0,6.098-2.368,6.926-4.794
		c0.178-0.533,0.296-1.125,0.296-1.657V38.588z"/>
	<path fill="#006226" d="M297.247,32.314c0-2.959-0.06-5.386-0.237-7.754h4.617l0.296,4.735h0.118
		c1.421-2.723,4.735-5.386,9.471-5.386c3.965,0,10.121,2.367,10.121,12.193v17.105h-5.209V36.694c0-4.617-1.716-8.464-6.629-8.464
		c-3.433,0-6.096,2.427-6.984,5.327c-0.236,0.651-0.355,1.539-0.355,2.427v17.224h-5.208V32.314z"/>
	<path fill="#006226" d="M354.842,11.184V45.81c0,2.545,0.059,5.445,0.236,7.398h-4.676l-0.236-4.972h-0.119
		c-1.598,3.196-5.09,5.623-9.766,5.623c-6.926,0-12.252-5.859-12.252-14.56c-0.06-9.53,5.859-15.389,12.844-15.389
		c4.38,0,7.34,2.071,8.642,4.38h0.118V11.184H354.842z M349.633,36.221c0-0.651-0.059-1.539-0.236-2.19
		c-0.77-3.314-3.611-6.037-7.518-6.037c-5.386,0-8.582,4.735-8.582,11.068c0,5.8,2.841,10.595,8.464,10.595
		c3.492,0,6.688-2.309,7.636-6.215c0.178-0.71,0.236-1.42,0.236-2.249V36.221z"/>
</g>
<g>
	<path fill="#006226" d="M130.609,85.828h-15.507v14.383h17.283v4.321h-22.433V64.638h21.544v4.321h-16.395v12.607h15.507V85.828z"
		/>
	<path fill="#006226" d="M140.911,75.884l5.623,16.1c0.947,2.604,1.717,4.972,2.309,7.339h0.177c0.652-2.368,1.48-4.735,2.427-7.339
		l5.563-16.1h5.445l-11.246,28.647h-4.972l-10.891-28.647H140.911z"/>
	<path fill="#006226" d="M169.916,91.155c0.119,7.043,4.617,9.943,9.826,9.943c3.729,0,5.978-0.651,7.931-1.479l0.888,3.729
		c-1.834,0.829-4.972,1.775-9.529,1.775c-8.818,0-14.087-5.8-14.087-14.442s5.091-15.448,13.437-15.448
		c9.352,0,11.838,8.227,11.838,13.495c0,1.065-0.119,1.894-0.178,2.427H169.916z M185.188,87.426
		c0.059-3.314-1.361-8.464-7.222-8.464c-5.268,0-7.576,4.853-7.99,8.464H185.188z"/>
	<path fill="#006226" d="M196.674,83.638c0-2.959-0.06-5.386-0.237-7.754h4.616l0.297,4.735h0.118
		c1.421-2.723,4.735-5.386,9.47-5.386c3.966,0,10.121,2.367,10.121,12.193v17.105h-5.208V88.018c0-4.617-1.717-8.464-6.63-8.464
		c-3.432,0-6.096,2.427-6.983,5.327c-0.237,0.651-0.355,1.539-0.355,2.427v17.224h-5.208V83.638z"/>
	<path fill="#006226" d="M235.801,67.657v8.227h7.458v3.966h-7.458v15.448c0,3.551,1.006,5.563,3.906,5.563
		c1.361,0,2.367-0.177,3.02-0.355l0.236,3.907c-1.006,0.414-2.604,0.71-4.617,0.71c-2.426,0-4.38-0.77-5.623-2.19
		c-1.479-1.539-2.012-4.084-2.012-7.458V79.85h-4.439v-3.966h4.439v-6.866L235.801,67.657z"/>
	<path fill="#006226" d="M248.41,99.204c1.539,1.006,4.262,2.072,6.865,2.072c3.789,0,5.564-1.894,5.564-4.262
		c0-2.486-1.48-3.847-5.327-5.268c-5.149-1.835-7.576-4.676-7.576-8.109c0-4.617,3.729-8.405,9.884-8.405
		c2.9,0,5.445,0.829,7.044,1.775l-1.302,3.788c-1.125-0.71-3.196-1.657-5.859-1.657c-3.078,0-4.795,1.776-4.795,3.907
		c0,2.367,1.717,3.433,5.445,4.854c4.972,1.894,7.518,4.38,7.518,8.641c0,5.031-3.907,8.583-10.714,8.583
		c-3.137,0-6.037-0.77-8.05-1.953L248.41,99.204z"/>
	<path fill="#006226" d="M271.318,101.454c0-2.19,1.48-3.729,3.552-3.729s3.492,1.539,3.492,3.729c0,2.13-1.361,3.729-3.552,3.729
		C272.74,105.182,271.318,103.584,271.318,101.454z"/>
</g>
<g>
	<path fill="#006226" d="M316.959,89.971c0,10.595-7.34,15.211-14.265,15.211c-7.754,0-13.731-5.682-13.731-14.738
		c0-9.589,6.273-15.211,14.205-15.211C311.395,75.233,316.959,81.211,316.959,89.971z M294.23,90.267
		c0,6.274,3.61,11.009,8.701,11.009c4.971,0,8.7-4.676,8.7-11.127c0-4.854-2.427-11.009-8.583-11.009
		C296.895,79.139,294.23,84.821,294.23,90.267z"/>
	<path fill="#006226" d="M323.533,84.821c0-3.374-0.06-6.274-0.237-8.938h4.558l0.178,5.623h0.236
		c1.303-3.847,4.439-6.274,7.932-6.274c0.592,0,1.006,0.059,1.479,0.177v4.913c-0.532-0.119-1.065-0.178-1.775-0.178
		c-3.67,0-6.274,2.782-6.984,6.688c-0.118,0.71-0.237,1.539-0.237,2.427v15.271h-5.148V84.821z"/>
	<path fill="#006226" d="M367.571,75.884c-0.118,2.072-0.237,4.38-0.237,7.872v16.632c0,6.57-1.302,10.595-4.084,13.081
		c-2.781,2.604-6.807,3.433-10.416,3.433c-3.434,0-7.222-0.829-9.53-2.368l1.302-3.966c1.895,1.184,4.854,2.25,8.405,2.25
		c5.327,0,9.233-2.782,9.233-10.003v-3.196h-0.118c-1.599,2.664-4.676,4.794-9.115,4.794c-7.103,0-12.192-6.038-12.192-13.969
		c0-9.707,6.333-15.211,12.902-15.211c4.973,0,7.695,2.604,8.938,4.972h0.119l0.236-4.321H367.571z M362.186,87.189
		c0-0.888-0.06-1.657-0.297-2.368c-0.946-3.019-3.492-5.504-7.279-5.504c-4.973,0-8.523,4.202-8.523,10.832
		c0,5.623,2.841,10.299,8.464,10.299c3.196,0,6.097-2.013,7.222-5.327c0.295-0.888,0.414-1.894,0.414-2.782V87.189z"/>
</g>
<g>
	<defs>
		<rect id="SVGID_1_" width="102.667" height="117"/>
	</defs>
	<clipPath id="SVGID_2_">
		<use xlink:href="#SVGID_1_"  overflow="visible"/>
	</clipPath>
	<path clip-path="url(#SVGID_2_)" fill="#FFFFFF" d="M102.876,27.61c-0.08,0.07-0.439,0.38-0.91,0.9
		c-0.539,0.58-3.58,2.33-3.98,2.51c-0.398,0.18-1.609,0.79-1.879,0.97c-0.27,0.19-0.85,0.38-1.391,0.47
		c-0.529,0.09-2.83,1.1-3.9,1.53c-1.068,0.41-4.379,3.03-5.41,3.76c-1.029,0.74-2.879,3.1-3.1,3.46
		c-0.219,0.37-2.18,2.55-2.619,3.09c-0.461,0.54-1.289,1.31-1.789,1.68c-0.5,0.36-3.211,3.1-3.922,3.74
		c-0.709,0.64-3,1.93-3.619,2.42c-0.621,0.51-0.031,0.63-0.121,1.05c-0.1,0.4-0.5,0.45-0.859,0.68c-0.369,0.23-0.229,0.51-0.26,0.68
		c-0.041,0.18-0.49,0.55-0.49,0.55l-1.07,0.01l0.18,11.8c0,0-0.01,0-0.219-0.05c-0.24-0.051-0.27,0.439-0.4,0.85
		c-0.119,0.39-0.449,0.11-0.99,0.021c-0.539-0.091-0.49,0.449-0.709,0.77c-0.23,0.32-0.352-0.09-0.811,0.01
		c-0.439,0.101-0.35,0.63-0.709,0.642c-0.361,0-1.521,0.789-1.932,1.188c-0.4,0.42-0.51,1.33-0.6,1.86
		c-0.09,0.54-0.77,1.04-1.211,1.37c-0.459,0.319-0.459,0.5-0.439,2.02c0.02,1.54,0.51,1.08,1.141,1.03
		c0.65-0.05,0.76-0.26,0.869,0.26c0.09,0.54,0.32,1.03,0.6,1.48c0.281,0.43,0.721,0.479,0.83,0.88
		c0.102,0.411-0.17,0.859-0.529,1.18c-0.35,0.32-0.119,0.54-0.199,0.94c-0.09,0.42-0.371,0.149-0.721,0.64
		c-0.34,0.49-0.029,1.35-0.16,1.76c-0.119,0.4,0.15,0.48,0.189,1.07c0.051,0.6-0.029,0.821-0.479,1.13
		c-0.432,0.33-0.25,0.87,0.119,1.441c0.359,0.589,0.32,1.299,0.32,1.759c0.01,0.46-0.34,0.51-0.121,0.87
		c0.23,0.35,0.061,0.859-0.289,1.63c-0.35,0.78-0.301,1.14-0.211,1.27c0.08,0.12,1.352,0.801,2.092,1.37
		c0.719,0.58,0.309,1.13,0.77,1.22c0.461,0.07,0.299,0.53,0.879,0.75c0.582,0.211,1.9,0.2,2.791,0.271
		c0.91,0.09,0.73,1.25,1.15,1.79c0.41,0.56,1.809,0.9,3.109,1.42c1.33,0.51,1.689,0.96,1.65,1.63c-0.041,0.67,0.65,0.811,0.65,1.351
		c0.01,0.539,0.369,0.989,1.238,1.51c0.861,0.529,0.771,0.439,1.641,1.109c0.859,0.67,0.91,1.2,1.73,1.42
		c0.811,0.221,2.35,1.11,3.039,1.99c0.711,0.9,1.66,2.69,1.67,3.311c0,0.64-0.389,1.54-0.189,2.35c0.18,0.811,0.41,1.12,0.371,1.521
		c-0.041,0.3,0.17,0.72,0.289,0.939H9.296l0.53-22.24c13.79-2.189,26.64-8.909,36.66-19.359c2.36,1.35,4.72,2.71,7.079,4.06
		c4.031-11.438,7.131-24.506,3.934-36.96c-11.462,8.677-23,15.787-31.783,20.97c2.36,1.36,4.72,2.71,7.08,4.07
		c-4.82,9.17-12.87,16.6-22.82,20.84l0.16-6.66l-0.05-0.31c-0.12-0.09-0.29-0.43-0.46-0.6c-0.22-0.25-0.43-0.351-0.729-0.521
		c-0.241-0.13-0.451-0.38-0.721-0.479c-0.29-0.091-0.64,0.04-0.91-0.11c-0.25-0.14-0.41-0.45-0.58-0.65
		c-0.19-0.21-0.39-0.439-0.539-0.699c-0.311-0.53-0.381-1.091-0.671-1.62c-0.15-0.261-0.35-0.459-0.51-0.709
		c-0.19-0.291-0.17-0.541-0.1-0.892c0.13-0.56,0.98-0.99,1.48-1.25c0.33-0.17,0.68-0.33,0.93-0.6c0.25-0.28,0.43-0.59,0.64-0.891
		c0.42-0.609,0.76-1.02,0.86-1.779c0.1-0.73,0.05-1.48-0.03-2.21c-0.02-0.32-0.07-0.811-0.01-1.12c0.06-0.36,0.31-0.58,0.26-0.99
		c-0.04-0.35-0.14-0.689-0.15-1.08c0-0.188-0.07-0.34-0.09-0.51c-0.02-0.17,0.05-0.32,0.03-0.49c-0.04-0.188-0.18-0.188-0.25-0.359
		c-0.08-0.19,0.05-0.271,0.06-0.45c0-0.19-0.09-0.32-0.09-0.5c0.01-0.101,0.08-0.34,0.08-0.36l0.04-0.46
		c-0.07,0-0.05-0.479-0.14-0.63c-0.089-0.12-0.3-0.26-0.45-0.32c0.03-0.3-0.25-0.479-0.34-0.75c-0.08-0.279-0.15-0.37-0.33-0.59
		c-0.21-0.24-0.2-0.53-0.26-0.81c-0.01-0.13,0.02-0.27-0.07-0.37c-0.09-0.11-0.18-0.08-0.25-0.22c-0.33-0.61-0.01-1.49-0.37-2.11
		c-0.17-0.29-0.36-0.56-0.47-0.88c-0.11-0.36,0.16-0.66,0.27-0.99c0.181-0.65,0.15-1.53-0.01-2.15c-0.04-0.2-0.11-0.31-0.03-0.5
		c0.03-0.06,0.12-0.09,0.14-0.2c0.02-0.08,0-0.19,0-0.27c0-0.1-0.04-0.22,0-0.32c0.04-0.12,0.11-0.1,0.16-0.19
		c0.09-0.17,0.08-0.26,0.1-0.48c0.05,0.01,0.11-0.02,0.16-0.01c-0.04-0.35,0.21-0.49-0.14-0.71c-0.14-0.09-0.19-0.05-0.28-0.23
		c-0.05-0.11-0.04-0.24-0.1-0.35c-0.34,0.21-0.319-0.62-0.37-0.77c-0.03-0.05-0.12-0.03-0.13-0.13c0-0.1,0.11-0.18,0.12-0.25
		c0.05-0.15,0.01-0.34,0.01-0.5c-0.01-0.32,0.04-0.63,0.09-0.94c0.05-0.34,0.02-0.69,0.03-1.03c0.08-1.32-0.18-2.63-0.03-3.96
		c0.01,0,0.02,0.01,0.03,0.02c-0.05-0.31,0.14-0.67,0-0.98c-0.05-0.13-0.22-0.19-0.26-0.3c-0.059-0.11,0.04-0.3,0.03-0.45
		c-0.01-0.17-0.089-0.3-0.1-0.46c-0.02-0.2,0.03-0.21,0.13-0.4c0.07-0.16,0.131-0.27,0.09-0.47c-0.03-0.15-0.13-0.27-0.09-0.44
		c0.02,0,0.05-0.01,0.07-0.01c0.04-0.29-0.189-0.45-0.17-0.67c0.02-0.23,0.11-0.07,0.2-0.22c0.05-0.05,0.07-0.29,0.06-0.36
		c-0.02-0.25-0.22-0.38-0.33-0.57c-0.12-0.23-0.12-0.46-0.13-0.72c-0.01-0.5-0.34-0.85-0.43-1.3c-0.05-0.24-0.01-0.54-0.15-0.75
		c-0.04-0.08-0.18-0.16-0.22-0.22c-0.05-0.11-0.03-0.26-0.04-0.38c-0.36-0.05-0.2-0.33-0.17-0.52c0.04-0.22-0.07-0.47-0.23-0.66
		c-0.19-0.24-0.23-0.26-0.28-0.57c0-0.12-0.049-0.21-0.04-0.35c0.02-0.08,0.08-0.24,0.07-0.33c-0.03-0.22-0.2-0.16-0.35-0.31
		c-0.1-0.09-0.15-0.2-0.2-0.34c-0.09-0.2-0.11-0.3-0.05-0.51c0.07-0.17,0.14-0.22,0.08-0.39c-0.01-0.06-0.13-0.1-0.16-0.16
		c-0.03-0.06-0.01-0.17-0.01-0.26c-0.01-0.18,0.02-0.35,0-0.53c-0.05-0.23-0.15-0.28-0.25-0.45c-0.09-0.16-0.08-0.26-0.09-0.46
		c-0.03-0.27-0.08-0.25-0.2-0.45c-0.03-0.05-0.08-0.07-0.12-0.14c-0.03-0.05-0.03-0.19-0.04-0.24c-0.08-0.32-0.26-0.56-0.21-0.92
		c0.04-0.2,0.06-0.34,0.05-0.51c0-0.17-0.01-0.34,0.04-0.49c0.04-0.17,0.11-0.29,0.13-0.47c0.03-0.16-0.05-0.38,0.04-0.49l0.09-0.98
		c-0.11-0.59-0.43-1.17-0.43-1.17s0.29-0.27,0.5-0.53c0.21-0.29,0.03-0.69-0.11-1.23c-0.14-0.53,0.13-0.58-0.2-1.29
		c-0.33-0.72,0.13-0.69,0.3-1.18c0.17-0.49,0.67-1.05,0.57-1.36c-0.11-0.31-0.43-1.15-0.7-1.79c-0.27-0.64-0.47-1.05-0.33-1.26
		c0.13-0.23,0.12-0.47-0.28-1.45c-0.42-0.99-0.2-2.03-0.2-2.03l27.2,0.67l0.15-7.16c0,0,0.03-0.42,0.32-0.01
		c0.27,0.4,0.81,0.37,1.21,0.22c0.41-0.14,0.63-0.45,1.4-0.01c0.771,0.45,1.43,0.75,1.43,0.75s-0.13,0.41,0.02,1.44
		c0.15,1.04,0.35,1.76,0.66,2.74c0.33,0.99,0.62,2.65,0.98,3.64c0.38,0.98-0.13,1.07-0.24,2.07c-0.11,0.99,0.71,1.43,1.61,2.03
		c0.9,0.6,0.53,0.41,1.35,0.54c0.81,0.13-0.01-0.33,0.8-0.51c0.82-0.18,1.73,0.08,1.9,0.39c0.18,0.31,0.15,0.81,0.65,0.96
		c0.5,0.15,1.98,0.05,3.02,0.17s1.93-0.12,2.35,0.5c0.4,0.63,0.01,0.86-0.04,1.4c-0.04,0.54,0.96,0.53,1.59,0.48
		c0.63-0.06,0.58-0.25,1.22-0.12c0.64,0.13,1.57-0.46,1.68-0.51c0.11-0.05,0.15-0.59,0.2-0.86c0.03-0.28,0.611-0.56,1.07-0.43
		c0.449,0.14,0.221-0.3,0.76-0.58c0.531-0.28,1.301-0.29,1.48-0.02s0.811,0.36,2.119,0.25c1.291-0.11,1.932,0.33,2.891,0.91
		c0.949,0.56,1.439,0.33,2.43,0.54c1.01,0.21,0.35,1.21-0.52,0.9c-0.6-0.21-0.211,0.92,0.061,1.23c0.279,0.31,0.91,0.07,1.85-0.16
		c0.951-0.24,1.18,0.35,1.23,0.75c0.059,0.41-0.301,0.77-0.16,1.23c0.139,0.43,1.299,2.1,1.609,2.27
		c0.311,0.18,0.82-0.22,1.121-0.32c0.318-0.1-0.262-0.49-0.5-1.03c-0.24-0.55,0.059-0.9,0.879-1.05c0.801-0.15,1.471-0.33,1.98-0.34
		c0.5,0,0.859,0.02,0.869,0.53c0.01,0.5,0.371,1.26,0.83,1.62c0.461,0.37,1,0.26,1,0.26l0.49,0.49l1.711,0.07
		c0,0,0.229-0.09,0.141,0.68c-0.092,0.76,0.779,0.93,0.779,0.93s1.18,0.45,1.279,0.97c0.09,0.54,1.35-0.06,1.66,0.3
		c0.33,0.35,0.76-0.47,1.439-0.43s0.592-0.14,1.07-0.41c0.51-0.27,2.051-1.78,2.59-2.15c0.551-0.36,2.02-1.02,2.432-1.11
		c0.389-0.09,0.359,0.68,0.539,0.98c0.18,0.32,0.82,0.68,0.6,0.99c-0.23,0.31,0.279,0.8,0.59,1.07c0.32,0.27,1.17-0.33,1.699-0.63
		c0.541-0.31,0.58-0.11,0.721,0.2c0.131,0.3,0.41,0.02,0.99-0.17c0.59-0.2,0.84,0.14,1.131,0.31c0.279,0.18,0.709-0.14,1.17-0.28
		c0.439-0.14,1.17-0.01,1.889-0.02c0.721-0.01,1.76,0.13,2.061,0.43c0.33,0.33,0.561,0.95,0.83,1.26c0.281,0.3,0.73,0.39,1.359,0.34
		c0.631-0.05,0.801-0.59,1.172-0.64c0.35-0.05,0.529,0.04,1.039,0.26C102.148,27.82,102.777,27.64,102.876,27.61"/>
	<path clip-path="url(#SVGID_2_)" fill="#136333" d="M101.876,26.61c-0.08,0.07-0.439,0.38-0.91,0.9
		c-0.539,0.58-3.58,2.33-3.98,2.51c-0.398,0.18-1.609,0.79-1.879,0.97c-0.27,0.19-0.85,0.38-1.391,0.47
		c-0.529,0.09-2.83,1.1-3.9,1.53c-1.068,0.41-4.379,3.03-5.41,3.76c-1.029,0.74-2.879,3.1-3.1,3.46
		c-0.219,0.37-2.18,2.55-2.619,3.09c-0.461,0.54-1.289,1.31-1.789,1.68c-0.5,0.36-3.211,3.1-3.922,3.74
		c-0.709,0.64-3,1.93-3.619,2.42c-0.621,0.51-0.031,0.63-0.121,1.05c-0.1,0.4-0.5,0.45-0.859,0.68c-0.369,0.23-0.229,0.51-0.26,0.68
		c-0.041,0.18-0.49,0.55-0.49,0.55l-1.07,0.01l0.18,11.8c0,0-0.01,0-0.219-0.05c-0.24-0.051-0.27,0.439-0.4,0.85
		c-0.119,0.39-0.449,0.11-0.99,0.021c-0.539-0.091-0.49,0.449-0.709,0.77c-0.23,0.32-0.352-0.09-0.811,0.01
		c-0.439,0.101-0.35,0.63-0.709,0.642c-0.361,0-1.521,0.789-1.932,1.188c-0.4,0.42-0.51,1.33-0.6,1.86
		c-0.09,0.54-0.77,1.04-1.211,1.37c-0.459,0.319-0.459,0.5-0.439,2.02c0.02,1.54,0.51,1.08,1.141,1.03
		c0.65-0.05,0.76-0.26,0.869,0.26c0.09,0.54,0.32,1.03,0.6,1.48c0.281,0.43,0.721,0.479,0.83,0.88
		c0.102,0.411-0.17,0.859-0.529,1.18c-0.35,0.32-0.119,0.54-0.199,0.94c-0.09,0.42-0.371,0.149-0.721,0.64
		c-0.34,0.49-0.029,1.35-0.16,1.76c-0.119,0.4,0.15,0.48,0.189,1.07c0.051,0.6-0.029,0.821-0.479,1.13
		c-0.432,0.33-0.25,0.87,0.119,1.441c0.359,0.589,0.32,1.299,0.32,1.759c0.01,0.46-0.34,0.51-0.121,0.87
		c0.23,0.35,0.061,0.859-0.289,1.63c-0.35,0.78-0.301,1.14-0.211,1.27c0.08,0.12,1.352,0.801,2.092,1.37
		c0.719,0.58,0.309,1.13,0.77,1.22c0.461,0.07,0.299,0.53,0.879,0.75c0.582,0.211,1.9,0.2,2.791,0.271
		c0.91,0.09,0.73,1.25,1.15,1.79c0.41,0.56,1.809,0.9,3.109,1.42c1.33,0.51,1.689,0.96,1.65,1.63c-0.041,0.67,0.65,0.811,0.65,1.351
		c0.01,0.539,0.369,0.989,1.238,1.51c0.861,0.529,0.771,0.439,1.641,1.109c0.859,0.67,0.91,1.2,1.73,1.42
		c0.811,0.221,2.35,1.11,3.039,1.99c0.711,0.9,1.66,2.69,1.67,3.311c0,0.64-0.389,1.54-0.189,2.35c0.18,0.811,0.41,1.12,0.371,1.521
		c-0.041,0.3,0.17,0.72,0.289,0.939H8.296l0.53-22.24c13.79-2.189,26.64-8.909,36.66-19.359c2.36,1.35,4.72,2.71,7.079,4.06
		c4.031-11.438,7.131-24.506,3.934-36.96c-11.462,8.677-23,15.787-31.783,20.97c2.36,1.36,4.72,2.71,7.08,4.07
		c-4.82,9.17-12.87,16.6-22.82,20.84l0.16-6.66l-0.05-0.31c-0.12-0.09-0.29-0.43-0.46-0.6c-0.22-0.25-0.43-0.351-0.729-0.521
		c-0.241-0.13-0.451-0.38-0.721-0.479c-0.29-0.091-0.64,0.04-0.91-0.11c-0.25-0.14-0.41-0.45-0.58-0.65
		c-0.19-0.21-0.39-0.439-0.539-0.699c-0.311-0.53-0.381-1.091-0.671-1.62c-0.15-0.261-0.35-0.459-0.51-0.709
		c-0.19-0.291-0.17-0.541-0.1-0.892c0.13-0.56,0.98-0.99,1.48-1.25c0.33-0.17,0.68-0.33,0.93-0.6c0.25-0.28,0.43-0.59,0.64-0.891
		c0.42-0.609,0.76-1.02,0.86-1.779c0.1-0.73,0.05-1.48-0.03-2.21c-0.02-0.32-0.07-0.811-0.01-1.12c0.06-0.36,0.31-0.58,0.26-0.99
		c-0.04-0.35-0.14-0.689-0.15-1.08c0-0.188-0.07-0.34-0.09-0.51c-0.02-0.17,0.05-0.32,0.03-0.49c-0.04-0.188-0.18-0.188-0.25-0.359
		c-0.08-0.19,0.05-0.271,0.06-0.45c0-0.19-0.09-0.32-0.09-0.5c0.01-0.101,0.08-0.34,0.08-0.36l0.04-0.46
		c-0.07,0-0.05-0.479-0.14-0.63c-0.089-0.12-0.3-0.26-0.45-0.32c0.03-0.3-0.25-0.479-0.34-0.75c-0.08-0.28-0.15-0.37-0.33-0.59
		c-0.21-0.24-0.2-0.53-0.26-0.81c-0.01-0.13,0.02-0.27-0.07-0.37c-0.09-0.11-0.18-0.08-0.25-0.22c-0.33-0.61-0.01-1.49-0.37-2.11
		c-0.17-0.29-0.36-0.56-0.47-0.88c-0.11-0.36,0.16-0.66,0.27-0.99c0.181-0.65,0.15-1.53-0.01-2.15c-0.04-0.2-0.11-0.31-0.03-0.5
		c0.03-0.06,0.12-0.09,0.14-0.2c0.02-0.08,0-0.19,0-0.27c0-0.1-0.04-0.22,0-0.32c0.04-0.12,0.11-0.1,0.16-0.19
		c0.09-0.17,0.08-0.26,0.1-0.48c0.05,0.01,0.11-0.02,0.16-0.01c-0.04-0.35,0.21-0.49-0.14-0.71c-0.14-0.09-0.19-0.05-0.28-0.23
		c-0.05-0.11-0.04-0.24-0.1-0.35c-0.34,0.21-0.319-0.62-0.37-0.77c-0.03-0.05-0.12-0.03-0.13-0.13c0-0.1,0.11-0.18,0.12-0.25
		c0.05-0.15,0.01-0.34,0.01-0.5c-0.01-0.32,0.04-0.63,0.09-0.94c0.05-0.34,0.02-0.69,0.03-1.03c0.08-1.32-0.18-2.63-0.03-3.96
		c0.01,0,0.02,0.01,0.03,0.02c-0.05-0.31,0.14-0.67,0-0.98c-0.05-0.13-0.22-0.19-0.26-0.3c-0.059-0.11,0.04-0.3,0.03-0.45
		c-0.01-0.17-0.089-0.3-0.1-0.46c-0.02-0.2,0.03-0.21,0.13-0.4c0.07-0.16,0.131-0.27,0.09-0.47c-0.03-0.15-0.13-0.27-0.09-0.44
		c0.02,0,0.05-0.01,0.07-0.01c0.04-0.29-0.189-0.45-0.17-0.67c0.02-0.23,0.11-0.07,0.2-0.22c0.05-0.05,0.07-0.29,0.06-0.36
		c-0.02-0.25-0.22-0.38-0.33-0.57c-0.12-0.23-0.12-0.46-0.13-0.72c-0.01-0.5-0.34-0.85-0.43-1.3c-0.05-0.24-0.01-0.54-0.15-0.75
		c-0.04-0.08-0.18-0.16-0.22-0.22c-0.05-0.11-0.03-0.26-0.04-0.38c-0.36-0.05-0.2-0.33-0.17-0.52c0.04-0.22-0.07-0.47-0.23-0.66
		c-0.19-0.24-0.23-0.26-0.28-0.57c0-0.12-0.049-0.21-0.04-0.35c0.02-0.08,0.08-0.24,0.07-0.33c-0.03-0.22-0.2-0.16-0.35-0.31
		c-0.1-0.09-0.15-0.2-0.2-0.34c-0.09-0.2-0.11-0.3-0.05-0.51c0.07-0.17,0.14-0.22,0.08-0.39c-0.01-0.06-0.13-0.1-0.16-0.16
		c-0.03-0.06-0.01-0.17-0.01-0.26c-0.01-0.18,0.02-0.35,0-0.53c-0.05-0.23-0.15-0.28-0.25-0.45c-0.09-0.16-0.08-0.26-0.09-0.46
		c-0.03-0.27-0.08-0.25-0.2-0.45c-0.03-0.05-0.08-0.07-0.12-0.14c-0.03-0.05-0.03-0.19-0.04-0.24c-0.08-0.32-0.26-0.56-0.21-0.92
		c0.04-0.2,0.06-0.34,0.05-0.51c0-0.17-0.01-0.34,0.04-0.49c0.04-0.17,0.11-0.29,0.13-0.47c0.03-0.16-0.05-0.38,0.04-0.49l0.09-0.98
		c-0.11-0.59-0.43-1.17-0.43-1.17s0.29-0.27,0.5-0.53c0.21-0.29,0.03-0.69-0.11-1.23c-0.14-0.53,0.13-0.58-0.2-1.29
		c-0.33-0.72,0.13-0.69,0.3-1.18c0.17-0.49,0.67-1.05,0.57-1.36c-0.11-0.31-0.43-1.15-0.7-1.79c-0.27-0.64-0.47-1.05-0.33-1.26
		c0.13-0.23,0.12-0.47-0.28-1.45c-0.42-0.99-0.2-2.03-0.2-2.03l27.2,0.67l0.15-7.16c0,0,0.03-0.42,0.32-0.01
		c0.27,0.4,0.81,0.37,1.21,0.22c0.41-0.14,0.63-0.45,1.4-0.01c0.771,0.45,1.43,0.75,1.43,0.75s-0.13,0.41,0.02,1.44
		c0.15,1.04,0.35,1.76,0.66,2.74c0.33,0.99,0.62,2.65,0.98,3.64c0.38,0.98-0.13,1.07-0.24,2.07c-0.11,0.99,0.71,1.43,1.61,2.03
		c0.9,0.6,0.53,0.41,1.35,0.54c0.81,0.13-0.01-0.33,0.8-0.51c0.82-0.18,1.73,0.08,1.9,0.39c0.18,0.31,0.15,0.81,0.65,0.96
		c0.5,0.15,1.98,0.05,3.02,0.17s1.93-0.12,2.35,0.5c0.4,0.63,0.01,0.86-0.04,1.4c-0.04,0.54,0.96,0.53,1.59,0.48
		c0.63-0.06,0.58-0.25,1.22-0.12c0.64,0.13,1.57-0.46,1.68-0.51c0.11-0.05,0.15-0.59,0.2-0.86c0.03-0.28,0.61-0.56,1.07-0.43
		c0.449,0.14,0.22-0.3,0.759-0.58c0.531-0.28,1.301-0.29,1.48-0.02s0.811,0.36,2.119,0.25c1.291-0.11,1.932,0.33,2.891,0.91
		c0.949,0.56,1.439,0.33,2.43,0.54c1.01,0.21,0.35,1.21-0.52,0.9c-0.6-0.21-0.211,0.92,0.061,1.23c0.279,0.31,0.91,0.07,1.85-0.16
		c0.951-0.24,1.18,0.35,1.23,0.75c0.059,0.41-0.301,0.77-0.16,1.23c0.139,0.43,1.299,2.1,1.609,2.27
		c0.311,0.18,0.82-0.22,1.121-0.32c0.318-0.1-0.262-0.49-0.5-1.03c-0.24-0.55,0.059-0.9,0.879-1.05c0.801-0.15,1.471-0.33,1.98-0.34
		c0.5,0,0.859,0.02,0.869,0.53c0.01,0.5,0.371,1.26,0.83,1.62c0.461,0.37,1,0.26,1,0.26l0.49,0.49l1.711,0.07
		c0,0,0.229-0.09,0.141,0.68c-0.092,0.76,0.779,0.93,0.779,0.93s1.18,0.45,1.279,0.97c0.09,0.54,1.35-0.06,1.66,0.3
		c0.33,0.35,0.76-0.47,1.439-0.43s0.592-0.14,1.07-0.41c0.51-0.27,2.051-1.78,2.59-2.15c0.551-0.36,2.02-1.02,2.432-1.11
		c0.389-0.09,0.359,0.68,0.539,0.98c0.18,0.32,0.82,0.68,0.6,0.99c-0.23,0.31,0.279,0.8,0.59,1.07c0.32,0.27,1.17-0.33,1.699-0.63
		c0.541-0.31,0.58-0.11,0.721,0.2c0.131,0.3,0.41,0.02,0.99-0.17c0.59-0.2,0.84,0.14,1.131,0.31c0.279,0.18,0.709-0.14,1.17-0.28
		c0.439-0.14,1.17-0.01,1.889-0.02c0.721-0.01,1.76,0.13,2.061,0.43c0.33,0.33,0.561,0.95,0.83,1.26c0.281,0.3,0.73,0.39,1.359,0.34
		c0.631-0.05,0.801-0.59,1.172-0.64c0.35-0.05,0.529,0.04,1.039,0.26C101.148,26.82,101.777,26.64,101.876,26.61"/>
</g>
<g>
</g>
<g>
</g>
<g>
</g>
<g>
</g>
<g>
</g>
<g>
</g>
<g>
</g>
<g>
</g>
<g>
</g>
<g>
</g>
<g>
</g>
<g>
</g>
<g>
</g>
<g>
</g>
<g>
</g>
</svg>
